# xmcd
#
# Track frame offsets:
#	150
#	13559
#	27835
#	48346
#	61384
#	80286
#	94234
#	106495
#	124804
#	137240
#	151291
#	164442
#
# Disc length: 2367 seconds
# Revision: 0
# Processed by: cddbd v1.5.2PL0 Copyright (c) Steve Scherf et al.
# Submitted via: dBpowerAMP V12.0
#
DISCID=97093d0c
DTITLE=Deeper Shade Of Blue - Steam
DYEAR=2018
DGENRE=Bluegrass
TTITLE0=Steam
TTITLE1=Pearly Gates
TTITLE2=Kentucky Slave House
TTITLE3=Hook It
TTITLE4=Rain and Snow
TTITLE5=Put Some Bluegrass in My Ear
TTITLE6=Out of the Blue
TTITLE7=How Great Thou Art
TTITLE8=Most of All
TTITLE9=I Just Steal Away and Pray
TTITLE10=In Your Eyes
TTITLE11=Uncle Josh The Dobro King
EXTD=
EXTT0=
EXTT1=
EXTT2=
EXTT3=
EXTT4=
EXTT5=
EXTT6=
EXTT7=
EXTT8=
EXTT9=
EXTT10=
EXTT11=
PLAYORDER=
